<mxfile host="app.diagrams.net" agent="Mozilla/5.0 (Windows NT 10.0; Win64; x64) AppleWebKit/537.36 (KHTML, like Gecko) Chrome/138.0.0.0 Safari/537.36 Edg/138.0.0.0" version="27.1.5">
  <diagram name="Page-1" id="v74eoKtpLlJJHYrrEGP6">
    <mxGraphModel dx="1434" dy="570" grid="1" gridSize="10" guides="1" tooltips="1" connect="1" arrows="1" fold="1" page="0" pageScale="1" pageWidth="850" pageHeight="1100" math="0" shadow="0">
      <root>
        <mxCell id="0" />
        <mxCell id="1" parent="0" />
        <mxCell id="2UjCHKWAPQ7vC159e6Yj-96" value="" style="rounded=0;whiteSpace=wrap;html=1;fillColor=none;strokeColor=none;" vertex="1" parent="1">
          <mxGeometry x="-70" y="160" width="1060" height="500" as="geometry" />
        </mxCell>
        <mxCell id="2UjCHKWAPQ7vC159e6Yj-2" value="orders" style="swimlane;fontStyle=0;childLayout=stackLayout;horizontal=1;startSize=30;horizontalStack=0;resizeParent=1;resizeParentMax=0;resizeLast=0;collapsible=1;marginBottom=0;align=center;fontSize=13;fontFamily=Helvetica;" vertex="1" parent="1">
          <mxGeometry x="160" y="210" width="160" height="250" as="geometry" />
        </mxCell>
        <mxCell id="2UjCHKWAPQ7vC159e6Yj-3" value="&lt;b&gt;id (PK)&lt;/b&gt;" style="text;strokeColor=none;fillColor=none;spacingLeft=4;spacingRight=4;overflow=hidden;rotatable=0;points=[[0,0.5],[1,0.5]];portConstraint=eastwest;fontSize=13;whiteSpace=wrap;html=1;fontFamily=Helvetica;" vertex="1" parent="2UjCHKWAPQ7vC159e6Yj-2">
          <mxGeometry y="30" width="160" height="30" as="geometry" />
        </mxCell>
        <mxCell id="2UjCHKWAPQ7vC159e6Yj-4" value="timestamp" style="text;strokeColor=none;fillColor=none;spacingLeft=4;spacingRight=4;overflow=hidden;rotatable=0;points=[[0,0.5],[1,0.5]];portConstraint=eastwest;fontSize=13;whiteSpace=wrap;html=1;fontFamily=Helvetica;" vertex="1" parent="2UjCHKWAPQ7vC159e6Yj-2">
          <mxGeometry y="60" width="160" height="30" as="geometry" />
        </mxCell>
        <mxCell id="2UjCHKWAPQ7vC159e6Yj-5" value="&lt;b&gt;store_id (FK)&lt;/b&gt;" style="text;strokeColor=none;fillColor=none;spacingLeft=4;spacingRight=4;overflow=hidden;rotatable=0;points=[[0,0.5],[1,0.5]];portConstraint=eastwest;fontSize=13;whiteSpace=wrap;html=1;fontFamily=Helvetica;" vertex="1" parent="2UjCHKWAPQ7vC159e6Yj-2">
          <mxGeometry y="90" width="160" height="30" as="geometry" />
        </mxCell>
        <mxCell id="2UjCHKWAPQ7vC159e6Yj-6" value="&lt;b&gt;customer_id (FK)&lt;/b&gt;" style="text;strokeColor=none;fillColor=none;spacingLeft=4;spacingRight=4;overflow=hidden;rotatable=0;points=[[0,0.5],[1,0.5]];portConstraint=eastwest;fontSize=13;whiteSpace=wrap;html=1;fontFamily=Helvetica;" vertex="1" parent="2UjCHKWAPQ7vC159e6Yj-2">
          <mxGeometry y="120" width="160" height="30" as="geometry" />
        </mxCell>
        <mxCell id="2UjCHKWAPQ7vC159e6Yj-7" value="&lt;b&gt;payment_method_id (FK)&lt;/b&gt;" style="text;strokeColor=none;fillColor=none;spacingLeft=4;spacingRight=4;overflow=hidden;rotatable=0;points=[[0,0.5],[1,0.5]];portConstraint=eastwest;fontSize=13;whiteSpace=wrap;html=1;fontFamily=Helvetica;" vertex="1" parent="2UjCHKWAPQ7vC159e6Yj-2">
          <mxGeometry y="150" width="160" height="44" as="geometry" />
        </mxCell>
        <mxCell id="2UjCHKWAPQ7vC159e6Yj-101" value="&lt;span style=&quot;font-weight: normal;&quot;&gt;num_products&lt;/span&gt;" style="text;strokeColor=none;fillColor=none;spacingLeft=4;spacingRight=4;overflow=hidden;rotatable=0;points=[[0,0.5],[1,0.5]];portConstraint=eastwest;fontSize=13;whiteSpace=wrap;html=1;fontFamily=Helvetica;fontStyle=1" vertex="1" parent="2UjCHKWAPQ7vC159e6Yj-2">
          <mxGeometry y="194" width="160" height="26" as="geometry" />
        </mxCell>
        <mxCell id="2UjCHKWAPQ7vC159e6Yj-44" value="status" style="text;strokeColor=none;fillColor=none;spacingLeft=4;spacingRight=4;overflow=hidden;rotatable=0;points=[[0,0.5],[1,0.5]];portConstraint=eastwest;fontSize=13;whiteSpace=wrap;html=1;fontFamily=Helvetica;" vertex="1" parent="2UjCHKWAPQ7vC159e6Yj-2">
          <mxGeometry y="220" width="160" height="30" as="geometry" />
        </mxCell>
        <mxCell id="2UjCHKWAPQ7vC159e6Yj-46" value="order_details" style="swimlane;fontStyle=0;childLayout=stackLayout;horizontal=1;startSize=30;horizontalStack=0;resizeParent=1;resizeParentMax=0;resizeLast=0;collapsible=1;marginBottom=0;align=center;fontSize=13;fontFamily=Helvetica;" vertex="1" parent="1">
          <mxGeometry x="380" y="210" width="160" height="210" as="geometry" />
        </mxCell>
        <mxCell id="2UjCHKWAPQ7vC159e6Yj-47" value="&lt;b&gt;order_id (FK)&lt;/b&gt;" style="text;strokeColor=none;fillColor=none;spacingLeft=4;spacingRight=4;overflow=hidden;rotatable=0;points=[[0,0.5],[1,0.5]];portConstraint=eastwest;fontSize=13;whiteSpace=wrap;html=1;fontFamily=Helvetica;" vertex="1" parent="2UjCHKWAPQ7vC159e6Yj-46">
          <mxGeometry y="30" width="160" height="30" as="geometry" />
        </mxCell>
        <mxCell id="2UjCHKWAPQ7vC159e6Yj-48" value="&lt;b&gt;product_id (FK)&lt;/b&gt;" style="text;strokeColor=none;fillColor=none;spacingLeft=4;spacingRight=4;overflow=hidden;rotatable=0;points=[[0,0.5],[1,0.5]];portConstraint=eastwest;fontSize=13;whiteSpace=wrap;html=1;fontFamily=Helvetica;" vertex="1" parent="2UjCHKWAPQ7vC159e6Yj-46">
          <mxGeometry y="60" width="160" height="30" as="geometry" />
        </mxCell>
        <mxCell id="2UjCHKWAPQ7vC159e6Yj-49" value="quantity" style="text;strokeColor=none;fillColor=none;spacingLeft=4;spacingRight=4;overflow=hidden;rotatable=0;points=[[0,0.5],[1,0.5]];portConstraint=eastwest;fontSize=13;whiteSpace=wrap;html=1;fontFamily=Helvetica;" vertex="1" parent="2UjCHKWAPQ7vC159e6Yj-46">
          <mxGeometry y="90" width="160" height="30" as="geometry" />
        </mxCell>
        <mxCell id="2UjCHKWAPQ7vC159e6Yj-50" value="discount_percent" style="text;strokeColor=none;fillColor=none;spacingLeft=4;spacingRight=4;overflow=hidden;rotatable=0;points=[[0,0.5],[1,0.5]];portConstraint=eastwest;fontSize=13;whiteSpace=wrap;html=1;fontFamily=Helvetica;" vertex="1" parent="2UjCHKWAPQ7vC159e6Yj-46">
          <mxGeometry y="120" width="160" height="30" as="geometry" />
        </mxCell>
        <mxCell id="2UjCHKWAPQ7vC159e6Yj-51" value="subtotal" style="text;strokeColor=none;fillColor=none;spacingLeft=4;spacingRight=4;overflow=hidden;rotatable=0;points=[[0,0.5],[1,0.5]];portConstraint=eastwest;fontSize=13;whiteSpace=wrap;html=1;fontFamily=Helvetica;" vertex="1" parent="2UjCHKWAPQ7vC159e6Yj-46">
          <mxGeometry y="150" width="160" height="30" as="geometry" />
        </mxCell>
        <mxCell id="2UjCHKWAPQ7vC159e6Yj-52" value="is_suggestion" style="text;strokeColor=none;fillColor=none;spacingLeft=4;spacingRight=4;overflow=hidden;rotatable=0;points=[[0,0.5],[1,0.5]];portConstraint=eastwest;fontSize=13;whiteSpace=wrap;html=1;fontFamily=Helvetica;" vertex="1" parent="2UjCHKWAPQ7vC159e6Yj-46">
          <mxGeometry y="180" width="160" height="30" as="geometry" />
        </mxCell>
        <mxCell id="2UjCHKWAPQ7vC159e6Yj-53" value="products" style="swimlane;fontStyle=0;childLayout=stackLayout;horizontal=1;startSize=30;horizontalStack=0;resizeParent=1;resizeParentMax=0;resizeLast=0;collapsible=1;marginBottom=0;align=center;fontSize=13;fontFamily=Helvetica;" vertex="1" parent="1">
          <mxGeometry x="600" y="170" width="160" height="180" as="geometry" />
        </mxCell>
        <mxCell id="2UjCHKWAPQ7vC159e6Yj-54" value="&lt;b&gt;id (PK)&lt;/b&gt;" style="text;strokeColor=none;fillColor=none;spacingLeft=4;spacingRight=4;overflow=hidden;rotatable=0;points=[[0,0.5],[1,0.5]];portConstraint=eastwest;fontSize=13;whiteSpace=wrap;html=1;fontFamily=Helvetica;" vertex="1" parent="2UjCHKWAPQ7vC159e6Yj-53">
          <mxGeometry y="30" width="160" height="30" as="geometry" />
        </mxCell>
        <mxCell id="2UjCHKWAPQ7vC159e6Yj-55" value="name" style="text;strokeColor=none;fillColor=none;spacingLeft=4;spacingRight=4;overflow=hidden;rotatable=0;points=[[0,0.5],[1,0.5]];portConstraint=eastwest;fontSize=13;whiteSpace=wrap;html=1;fontFamily=Helvetica;" vertex="1" parent="2UjCHKWAPQ7vC159e6Yj-53">
          <mxGeometry y="60" width="160" height="30" as="geometry" />
        </mxCell>
        <mxCell id="2UjCHKWAPQ7vC159e6Yj-56" value="&lt;b&gt;category_id (FK)&lt;/b&gt;" style="text;strokeColor=none;fillColor=none;spacingLeft=4;spacingRight=4;overflow=hidden;rotatable=0;points=[[0,0.5],[1,0.5]];portConstraint=eastwest;fontSize=13;whiteSpace=wrap;html=1;fontFamily=Helvetica;" vertex="1" parent="2UjCHKWAPQ7vC159e6Yj-53">
          <mxGeometry y="90" width="160" height="30" as="geometry" />
        </mxCell>
        <mxCell id="2UjCHKWAPQ7vC159e6Yj-57" value="unit_price" style="text;strokeColor=none;fillColor=none;spacingLeft=4;spacingRight=4;overflow=hidden;rotatable=0;points=[[0,0.5],[1,0.5]];portConstraint=eastwest;fontSize=13;whiteSpace=wrap;html=1;fontFamily=Helvetica;" vertex="1" parent="2UjCHKWAPQ7vC159e6Yj-53">
          <mxGeometry y="120" width="160" height="30" as="geometry" />
        </mxCell>
        <mxCell id="2UjCHKWAPQ7vC159e6Yj-58" value="updated_at" style="text;strokeColor=none;fillColor=none;spacingLeft=4;spacingRight=4;overflow=hidden;rotatable=0;points=[[0,0.5],[1,0.5]];portConstraint=eastwest;fontSize=13;whiteSpace=wrap;html=1;fontFamily=Helvetica;" vertex="1" parent="2UjCHKWAPQ7vC159e6Yj-53">
          <mxGeometry y="150" width="160" height="30" as="geometry" />
        </mxCell>
        <mxCell id="2UjCHKWAPQ7vC159e6Yj-60" value="product_category" style="swimlane;fontStyle=0;childLayout=stackLayout;horizontal=1;startSize=30;horizontalStack=0;resizeParent=1;resizeParentMax=0;resizeLast=0;collapsible=1;marginBottom=0;align=center;fontSize=13;fontFamily=Helvetica;" vertex="1" parent="1">
          <mxGeometry x="820" y="170" width="160" height="120" as="geometry" />
        </mxCell>
        <mxCell id="2UjCHKWAPQ7vC159e6Yj-61" value="&lt;b&gt;id (PK)&lt;/b&gt;" style="text;strokeColor=none;fillColor=none;spacingLeft=4;spacingRight=4;overflow=hidden;rotatable=0;points=[[0,0.5],[1,0.5]];portConstraint=eastwest;fontSize=13;whiteSpace=wrap;html=1;fontFamily=Helvetica;" vertex="1" parent="2UjCHKWAPQ7vC159e6Yj-60">
          <mxGeometry y="30" width="160" height="30" as="geometry" />
        </mxCell>
        <mxCell id="2UjCHKWAPQ7vC159e6Yj-62" value="name" style="text;strokeColor=none;fillColor=none;spacingLeft=4;spacingRight=4;overflow=hidden;rotatable=0;points=[[0,0.5],[1,0.5]];portConstraint=eastwest;fontSize=13;whiteSpace=wrap;html=1;fontFamily=Helvetica;" vertex="1" parent="2UjCHKWAPQ7vC159e6Yj-60">
          <mxGeometry y="60" width="160" height="30" as="geometry" />
        </mxCell>
        <mxCell id="2UjCHKWAPQ7vC159e6Yj-63" value="updated_at" style="text;strokeColor=none;fillColor=none;spacingLeft=4;spacingRight=4;overflow=hidden;rotatable=0;points=[[0,0.5],[1,0.5]];portConstraint=eastwest;fontSize=13;whiteSpace=wrap;html=1;fontFamily=Helvetica;" vertex="1" parent="2UjCHKWAPQ7vC159e6Yj-60">
          <mxGeometry y="90" width="160" height="30" as="geometry" />
        </mxCell>
        <mxCell id="2UjCHKWAPQ7vC159e6Yj-67" value="customers" style="swimlane;fontStyle=0;childLayout=stackLayout;horizontal=1;startSize=30;horizontalStack=0;resizeParent=1;resizeParentMax=0;resizeLast=0;collapsible=1;marginBottom=0;align=center;fontSize=13;fontFamily=Helvetica;" vertex="1" parent="1">
          <mxGeometry x="380" y="470" width="160" height="180" as="geometry" />
        </mxCell>
        <mxCell id="2UjCHKWAPQ7vC159e6Yj-68" value="&lt;b&gt;id (PK)&lt;/b&gt;" style="text;strokeColor=none;fillColor=none;spacingLeft=4;spacingRight=4;overflow=hidden;rotatable=0;points=[[0,0.5],[1,0.5]];portConstraint=eastwest;fontSize=13;whiteSpace=wrap;html=1;fontFamily=Helvetica;" vertex="1" parent="2UjCHKWAPQ7vC159e6Yj-67">
          <mxGeometry y="30" width="160" height="30" as="geometry" />
        </mxCell>
        <mxCell id="2UjCHKWAPQ7vC159e6Yj-69" value="name" style="text;strokeColor=none;fillColor=none;spacingLeft=4;spacingRight=4;overflow=hidden;rotatable=0;points=[[0,0.5],[1,0.5]];portConstraint=eastwest;fontSize=13;whiteSpace=wrap;html=1;fontFamily=Helvetica;" vertex="1" parent="2UjCHKWAPQ7vC159e6Yj-67">
          <mxGeometry y="60" width="160" height="30" as="geometry" />
        </mxCell>
        <mxCell id="2UjCHKWAPQ7vC159e6Yj-70" value="phone_number" style="text;strokeColor=none;fillColor=none;spacingLeft=4;spacingRight=4;overflow=hidden;rotatable=0;points=[[0,0.5],[1,0.5]];portConstraint=eastwest;fontSize=13;whiteSpace=wrap;html=1;fontFamily=Helvetica;" vertex="1" parent="2UjCHKWAPQ7vC159e6Yj-67">
          <mxGeometry y="90" width="160" height="30" as="geometry" />
        </mxCell>
        <mxCell id="2UjCHKWAPQ7vC159e6Yj-71" value="tier" style="text;strokeColor=none;fillColor=none;spacingLeft=4;spacingRight=4;overflow=hidden;rotatable=0;points=[[0,0.5],[1,0.5]];portConstraint=eastwest;fontSize=13;whiteSpace=wrap;html=1;fontFamily=Helvetica;" vertex="1" parent="2UjCHKWAPQ7vC159e6Yj-67">
          <mxGeometry y="120" width="160" height="30" as="geometry" />
        </mxCell>
        <mxCell id="2UjCHKWAPQ7vC159e6Yj-72" value="updated_at" style="text;strokeColor=none;fillColor=none;spacingLeft=4;spacingRight=4;overflow=hidden;rotatable=0;points=[[0,0.5],[1,0.5]];portConstraint=eastwest;fontSize=13;whiteSpace=wrap;html=1;fontFamily=Helvetica;" vertex="1" parent="2UjCHKWAPQ7vC159e6Yj-67">
          <mxGeometry y="150" width="160" height="30" as="geometry" />
        </mxCell>
        <mxCell id="2UjCHKWAPQ7vC159e6Yj-74" value="payment_method" style="swimlane;fontStyle=0;childLayout=stackLayout;horizontal=1;startSize=30;horizontalStack=0;resizeParent=1;resizeParentMax=0;resizeLast=0;collapsible=1;marginBottom=0;align=center;fontSize=13;fontFamily=Helvetica;" vertex="1" parent="1">
          <mxGeometry x="-60" y="470" width="160" height="150" as="geometry" />
        </mxCell>
        <mxCell id="2UjCHKWAPQ7vC159e6Yj-75" value="&lt;b&gt;id (PK)&lt;/b&gt;" style="text;strokeColor=none;fillColor=none;spacingLeft=4;spacingRight=4;overflow=hidden;rotatable=0;points=[[0,0.5],[1,0.5]];portConstraint=eastwest;fontSize=13;whiteSpace=wrap;html=1;fontFamily=Helvetica;" vertex="1" parent="2UjCHKWAPQ7vC159e6Yj-74">
          <mxGeometry y="30" width="160" height="30" as="geometry" />
        </mxCell>
        <mxCell id="2UjCHKWAPQ7vC159e6Yj-76" value="method_name" style="text;strokeColor=none;fillColor=none;spacingLeft=4;spacingRight=4;overflow=hidden;rotatable=0;points=[[0,0.5],[1,0.5]];portConstraint=eastwest;fontSize=13;whiteSpace=wrap;html=1;fontFamily=Helvetica;" vertex="1" parent="2UjCHKWAPQ7vC159e6Yj-74">
          <mxGeometry y="60" width="160" height="30" as="geometry" />
        </mxCell>
        <mxCell id="2UjCHKWAPQ7vC159e6Yj-77" value="bank" style="text;strokeColor=none;fillColor=none;spacingLeft=4;spacingRight=4;overflow=hidden;rotatable=0;points=[[0,0.5],[1,0.5]];portConstraint=eastwest;fontSize=13;whiteSpace=wrap;html=1;fontFamily=Helvetica;" vertex="1" parent="2UjCHKWAPQ7vC159e6Yj-74">
          <mxGeometry y="90" width="160" height="30" as="geometry" />
        </mxCell>
        <mxCell id="2UjCHKWAPQ7vC159e6Yj-78" value="updated_at" style="text;strokeColor=none;fillColor=none;spacingLeft=4;spacingRight=4;overflow=hidden;rotatable=0;points=[[0,0.5],[1,0.5]];portConstraint=eastwest;fontSize=13;whiteSpace=wrap;html=1;fontFamily=Helvetica;" vertex="1" parent="2UjCHKWAPQ7vC159e6Yj-74">
          <mxGeometry y="120" width="160" height="30" as="geometry" />
        </mxCell>
        <mxCell id="2UjCHKWAPQ7vC159e6Yj-81" value="stores" style="swimlane;fontStyle=0;childLayout=stackLayout;horizontal=1;startSize=30;horizontalStack=0;resizeParent=1;resizeParentMax=0;resizeLast=0;collapsible=1;marginBottom=0;align=center;fontSize=13;fontFamily=Helvetica;" vertex="1" parent="1">
          <mxGeometry x="-60" y="170" width="160" height="210" as="geometry" />
        </mxCell>
        <mxCell id="2UjCHKWAPQ7vC159e6Yj-82" value="&lt;b&gt;id (PK)&lt;/b&gt;" style="text;strokeColor=none;fillColor=none;spacingLeft=4;spacingRight=4;overflow=hidden;rotatable=0;points=[[0,0.5],[1,0.5]];portConstraint=eastwest;fontSize=13;whiteSpace=wrap;html=1;fontFamily=Helvetica;" vertex="1" parent="2UjCHKWAPQ7vC159e6Yj-81">
          <mxGeometry y="30" width="160" height="30" as="geometry" />
        </mxCell>
        <mxCell id="2UjCHKWAPQ7vC159e6Yj-83" value="name" style="text;strokeColor=none;fillColor=none;spacingLeft=4;spacingRight=4;overflow=hidden;rotatable=0;points=[[0,0.5],[1,0.5]];portConstraint=eastwest;fontSize=13;whiteSpace=wrap;html=1;fontFamily=Helvetica;" vertex="1" parent="2UjCHKWAPQ7vC159e6Yj-81">
          <mxGeometry y="60" width="160" height="30" as="geometry" />
        </mxCell>
        <mxCell id="2UjCHKWAPQ7vC159e6Yj-84" value="address" style="text;strokeColor=none;fillColor=none;spacingLeft=4;spacingRight=4;overflow=hidden;rotatable=0;points=[[0,0.5],[1,0.5]];portConstraint=eastwest;fontSize=13;whiteSpace=wrap;html=1;fontFamily=Helvetica;" vertex="1" parent="2UjCHKWAPQ7vC159e6Yj-81">
          <mxGeometry y="90" width="160" height="30" as="geometry" />
        </mxCell>
        <mxCell id="2UjCHKWAPQ7vC159e6Yj-85" value="district" style="text;strokeColor=none;fillColor=none;spacingLeft=4;spacingRight=4;overflow=hidden;rotatable=0;points=[[0,0.5],[1,0.5]];portConstraint=eastwest;fontSize=13;whiteSpace=wrap;html=1;fontFamily=Helvetica;" vertex="1" parent="2UjCHKWAPQ7vC159e6Yj-81">
          <mxGeometry y="120" width="160" height="30" as="geometry" />
        </mxCell>
        <mxCell id="2UjCHKWAPQ7vC159e6Yj-86" value="city" style="text;strokeColor=none;fillColor=none;spacingLeft=4;spacingRight=4;overflow=hidden;rotatable=0;points=[[0,0.5],[1,0.5]];portConstraint=eastwest;fontSize=13;whiteSpace=wrap;html=1;fontFamily=Helvetica;" vertex="1" parent="2UjCHKWAPQ7vC159e6Yj-81">
          <mxGeometry y="150" width="160" height="30" as="geometry" />
        </mxCell>
        <mxCell id="2UjCHKWAPQ7vC159e6Yj-87" value="updated_at" style="text;strokeColor=none;fillColor=none;spacingLeft=4;spacingRight=4;overflow=hidden;rotatable=0;points=[[0,0.5],[1,0.5]];portConstraint=eastwest;fontSize=13;whiteSpace=wrap;html=1;fontFamily=Helvetica;" vertex="1" parent="2UjCHKWAPQ7vC159e6Yj-81">
          <mxGeometry y="180" width="160" height="30" as="geometry" />
        </mxCell>
        <mxCell id="2UjCHKWAPQ7vC159e6Yj-88" value="" style="edgeStyle=entityRelationEdgeStyle;fontSize=12;html=1;endArrow=ERoneToMany;rounded=0;entryX=0;entryY=0.5;entryDx=0;entryDy=0;" edge="1" parent="1" source="2UjCHKWAPQ7vC159e6Yj-82" target="2UjCHKWAPQ7vC159e6Yj-5">
          <mxGeometry width="100" height="100" relative="1" as="geometry">
            <mxPoint x="340" y="460" as="sourcePoint" />
            <mxPoint x="440" y="360" as="targetPoint" />
          </mxGeometry>
        </mxCell>
        <mxCell id="2UjCHKWAPQ7vC159e6Yj-89" value="" style="edgeStyle=entityRelationEdgeStyle;fontSize=12;html=1;endArrow=ERoneToMany;rounded=0;exitX=1;exitY=0.5;exitDx=0;exitDy=0;entryX=0;entryY=0.5;entryDx=0;entryDy=0;" edge="1" parent="1" source="2UjCHKWAPQ7vC159e6Yj-75" target="2UjCHKWAPQ7vC159e6Yj-7">
          <mxGeometry width="100" height="100" relative="1" as="geometry">
            <mxPoint x="350" y="470" as="sourcePoint" />
            <mxPoint x="450" y="370" as="targetPoint" />
          </mxGeometry>
        </mxCell>
        <mxCell id="2UjCHKWAPQ7vC159e6Yj-90" value="" style="edgeStyle=entityRelationEdgeStyle;fontSize=12;html=1;endArrow=ERoneToMany;rounded=0;exitX=0;exitY=0.5;exitDx=0;exitDy=0;entryX=1;entryY=0.5;entryDx=0;entryDy=0;" edge="1" parent="1" source="2UjCHKWAPQ7vC159e6Yj-68" target="2UjCHKWAPQ7vC159e6Yj-6">
          <mxGeometry width="100" height="100" relative="1" as="geometry">
            <mxPoint x="360" y="480" as="sourcePoint" />
            <mxPoint x="460" y="380" as="targetPoint" />
          </mxGeometry>
        </mxCell>
        <mxCell id="2UjCHKWAPQ7vC159e6Yj-91" value="" style="edgeStyle=entityRelationEdgeStyle;fontSize=12;html=1;endArrow=ERoneToMany;rounded=0;entryX=1;entryY=0.5;entryDx=0;entryDy=0;" edge="1" parent="1" source="2UjCHKWAPQ7vC159e6Yj-54" target="2UjCHKWAPQ7vC159e6Yj-48">
          <mxGeometry width="100" height="100" relative="1" as="geometry">
            <mxPoint x="370" y="490" as="sourcePoint" />
            <mxPoint x="470" y="390" as="targetPoint" />
          </mxGeometry>
        </mxCell>
        <mxCell id="2UjCHKWAPQ7vC159e6Yj-92" value="" style="edgeStyle=entityRelationEdgeStyle;fontSize=12;html=1;endArrow=ERoneToMany;rounded=0;exitX=1;exitY=0.5;exitDx=0;exitDy=0;" edge="1" parent="1" source="2UjCHKWAPQ7vC159e6Yj-3" target="2UjCHKWAPQ7vC159e6Yj-47">
          <mxGeometry width="100" height="100" relative="1" as="geometry">
            <mxPoint x="380" y="500" as="sourcePoint" />
            <mxPoint x="480" y="400" as="targetPoint" />
          </mxGeometry>
        </mxCell>
        <mxCell id="2UjCHKWAPQ7vC159e6Yj-94" value="" style="edgeStyle=entityRelationEdgeStyle;fontSize=12;html=1;endArrow=ERoneToMany;rounded=0;exitX=0;exitY=0.5;exitDx=0;exitDy=0;" edge="1" parent="1" source="2UjCHKWAPQ7vC159e6Yj-61" target="2UjCHKWAPQ7vC159e6Yj-56">
          <mxGeometry width="100" height="100" relative="1" as="geometry">
            <mxPoint x="400" y="520" as="sourcePoint" />
            <mxPoint x="500" y="420" as="targetPoint" />
          </mxGeometry>
        </mxCell>
        <mxCell id="2UjCHKWAPQ7vC159e6Yj-99" value="" style="edgeStyle=orthogonalEdgeStyle;rounded=0;orthogonalLoop=1;jettySize=auto;html=1;" edge="1" parent="1" source="2UjCHKWAPQ7vC159e6Yj-7" target="2UjCHKWAPQ7vC159e6Yj-87">
          <mxGeometry relative="1" as="geometry" />
        </mxCell>
      </root>
    </mxGraphModel>
  </diagram>
</mxfile>
